<svg width="48" height="48" viewBox="0 0 48 48" fill="none" xmlns="http://www.w3.org/2000/svg">
<g clip-path="url(#clip0_20_283)">
<path d="M24.0015 9.60077C17.6014 9.60077 13.6027 12.7995 12.0015 19.1996C14.4007 16.0005 17.2016 14.8009 20.4007 15.6008C22.2274 16.056 23.5328 17.3805 24.9784 18.8483C27.3311 21.2359 30.0544 24 36.0015 24C42.4012 24 46.4002 20.8009 48.0015 14.3993C45.6019 17.6003 42.8014 18.7999 39.6019 18C37.7756 17.5444 36.4718 16.2203 35.0243 14.7525C32.673 12.3649 29.9505 9.60077 24.0015 9.60077ZM12.0015 24C5.60175 24 1.60275 27.1991 0.00149918 33.6008C2.40075 30.3998 5.20125 29.2001 8.40075 30C10.2274 30.4556 11.5327 31.7798 12.9784 33.2475C15.3311 35.6351 18.0544 38.3993 24.0015 38.3993C30.4012 38.3993 34.4002 35.2005 36.0015 28.8004C33.6019 31.9995 30.8014 33.1991 27.6019 32.3993C25.7756 31.944 24.4717 30.6195 23.0242 29.1518C20.673 26.7641 17.9505 24 12.0015 24Z" fill="#38BDF8"/>
</g>
<defs>
<clipPath id="clip0_20_283">
<rect width="48" height="48" fill="white"/>
</clipPath>
</defs>
</svg>
