<svg width="48" height="48" viewBox="0 0 48 48" fill="none" xmlns="http://www.w3.org/2000/svg">
<path d="M30.564 3.54939C30.9289 4.00202 31.1149 4.61289 31.4854 5.83314L39.6064 32.5091C36.5562 30.926 33.2822 29.8177 29.8976 29.2223L24.6109 11.355C24.5691 11.2122 24.4822 11.0868 24.3631 10.9976C24.244 10.9084 24.0991 10.8603 23.9503 10.8604C23.8015 10.8606 23.6568 10.9091 23.5379 10.9985C23.419 11.088 23.3323 11.2136 23.2909 11.3565L18.0675 29.2133C14.6681 29.8062 11.3796 30.9163 8.31638 32.505L16.4756 5.82752C16.8491 4.60877 17.0351 3.99902 17.3996 3.54639C17.7218 3.14798 18.1404 2.83845 18.6158 2.64714C19.1531 2.43152 19.7918 2.43152 21.0664 2.43152H26.895C28.1707 2.43152 28.8094 2.43152 29.3486 2.64864C29.8243 2.83991 30.2425 3.15005 30.564 3.54939Z" fill="url(#paint0_linear_20_285)"/>
<path d="M31.5353 33.7777C30.1965 34.9234 27.5243 35.7041 24.4466 35.7041C20.6704 35.7041 17.5035 34.5277 16.6639 32.9456C16.3639 33.8524 16.2964 34.8896 16.2964 35.5534C16.2964 35.5534 16.0988 38.8065 18.3619 41.0696C18.3619 40.7903 18.4169 40.5137 18.5238 40.2557C18.6307 39.9977 18.7874 39.7632 18.9849 39.5657C19.1824 39.3683 19.4169 39.2116 19.6749 39.1048C19.933 38.9979 20.2096 38.9429 20.4889 38.943C22.5026 38.943 22.5015 40.6991 22.5 42.126V42.252C22.5 44.4169 23.8226 46.2716 25.7036 47.0539C25.4137 46.4583 25.2634 45.8045 25.2641 45.1421C25.2641 43.0766 26.4754 42.309 27.8846 41.4154C29.0055 40.7051 30.2505 39.9154 31.1074 38.3321C31.5698 37.479 31.8116 36.5238 31.8105 35.5534C31.811 34.9508 31.7182 34.3518 31.5353 33.7777Z" fill="#FF5D01"/>
<path d="M31.5353 33.7777C30.1965 34.9234 27.5243 35.7041 24.4466 35.7041C20.6704 35.7041 17.5035 34.5277 16.6639 32.9456C16.3639 33.8524 16.2964 34.8896 16.2964 35.5534C16.2964 35.5534 16.0988 38.8065 18.3619 41.0696C18.3619 40.7903 18.4169 40.5137 18.5238 40.2557C18.6307 39.9977 18.7874 39.7632 18.9849 39.5657C19.1824 39.3683 19.4169 39.2116 19.6749 39.1048C19.933 38.9979 20.2096 38.9429 20.4889 38.943C22.5026 38.943 22.5015 40.6991 22.5 42.126V42.252C22.5 44.4169 23.8226 46.2716 25.7036 47.0539C25.4137 46.4583 25.2634 45.8045 25.2641 45.1421C25.2641 43.0766 26.4754 42.309 27.8846 41.4154C29.0055 40.7051 30.2505 39.9154 31.1074 38.3321C31.5698 37.479 31.8116 36.5238 31.8105 35.5534C31.811 34.9508 31.7182 34.3518 31.5353 33.7777Z" fill="url(#paint1_linear_20_285)"/>
<defs>
<linearGradient id="paint0_linear_20_285" x1="33.1124" y1="1.01676" x2="23.9608" y2="32.5088" gradientUnits="userSpaceOnUse">
<stop stop-color="#000014"/>
<stop offset="1" stop-color="#150426"/>
</linearGradient>
<linearGradient id="paint1_linear_20_285" x1="37.563" y1="24.4669" x2="29.6372" y2="41.0591" gradientUnits="userSpaceOnUse">
<stop stop-color="#FF1639"/>
<stop offset="1" stop-color="#FF1639" stop-opacity="0"/>
</linearGradient>
</defs>
</svg>
