<svg width="48" height="48" viewBox="0 0 48 48" fill="none" xmlns="http://www.w3.org/2000/svg">
<path d="M23.58 23H19.44V16.38H24.38C26.9 16.38 28.3 17.5 28.3 19.56C28.3 21.8 26.64 23 23.58 23ZM24.32 25.26H19.44V32.54H24.56C27.68 32.54 29.32 31.28 29.32 28.88C29.32 26.48 27.62 25.26 24.32 25.26ZM44 10.62V37.38C44 41 41 44 37.38 44H10.62C7 44 4 41 4 37.38V10.62C4 7 7 4 10.62 4H37.38C41 4 44 7 44 10.62ZM32 29C32 26.24 30.16 24.26 27.34 23.9V23.78C29.34 23.42 30.92 21.42 30.92 19.26C30.92 16.16 28.52 14.1 25 14.1H16.86V34.82H24.94C29.36 34.82 32 32.64 32 29Z" fill="#9747FF"/>
</svg>
